<svg width="76" height="75" viewBox="0 0 76 75" fill="none" xmlns="http://www.w3.org/2000/svg">
<path d="M38 65.625C22.467 65.625 9.875 53.033 9.875 37.5C9.875 21.967 22.467 9.375 38 9.375C53.533 9.375 66.125 21.967 66.125 37.5C66.125 53.033 53.533 65.625 38 65.625Z" stroke="#A0A0A0" stroke-width="3"/>
<path fill-rule="evenodd" clip-rule="evenodd" d="M28.3457 29.4407H28.3479C28.3906 30.2499 29.0602 30.8928 29.8799 30.8928C30.7256 30.8928 31.4114 30.2086 31.4142 29.3637C31.7486 25.5158 34.3535 23.0847 38.0972 23.0847C41.8895 23.0847 44.5512 25.6222 44.5512 29.1205C44.5512 31.8304 43.4441 33.5303 40.4762 35.5504C37.1551 37.7676 35.7889 39.837 35.8125 43.1136V45.4293H35.8218C35.8236 46.2905 36.5223 46.9882 37.3839 46.9882C38.2467 46.9882 38.9461 46.2888 38.9461 45.426C38.9461 45.4084 38.9458 45.3909 38.9452 45.3734V43.5816C38.9452 40.8471 39.8167 39.4428 42.9023 37.3734C46.1293 35.2055 47.8723 32.6188 47.8723 28.9727C47.8723 23.947 43.8916 20.1531 38.215 20.1531C32.2707 20.1531 28.7604 24.0423 28.3674 29.1002C28.3531 29.1842 28.3457 29.2705 28.3457 29.3585C28.3457 29.3785 28.3461 29.3984 28.3468 29.4182L28.3457 29.4407Z" fill="#A0A0A0"/>
<path d="M28.3479 29.4407L28.4477 29.4355L28.4427 29.3407H28.3479V29.4407ZM28.3457 29.4407L28.2458 29.4357L28.2405 29.5407H28.3457V29.4407ZM31.4142 29.3637L31.3142 29.355L31.3142 29.3633L31.4142 29.3637ZM40.4762 35.5504L40.5318 35.6336L40.5325 35.6331L40.4762 35.5504ZM35.8125 43.1136H35.9125L35.9125 43.1128L35.8125 43.1136ZM35.8125 45.4293H35.7125V45.5293H35.8125V45.4293ZM35.8218 45.4293L35.9218 45.4291L35.9216 45.3293H35.8218V45.4293ZM38.9452 45.3734H38.8451L38.8453 45.3767L38.9452 45.3734ZM42.9023 37.3734L42.958 37.4565L42.9581 37.4564L42.9023 37.3734ZM28.3674 29.1002L28.4664 29.117L28.4671 29.1079L28.3674 29.1002ZM28.3468 29.4182L28.4471 29.4233L28.4468 29.4144L28.3468 29.4182ZM28.3479 29.3407H28.3457V29.5407H28.3479V29.3407ZM29.8799 30.7928C29.1136 30.7928 28.4877 30.1918 28.4477 29.4355L28.248 29.446C28.2935 30.3079 29.0067 30.9928 29.8799 30.9928V30.7928ZM31.3142 29.3633C31.3116 30.1532 30.6704 30.7928 29.8799 30.7928V30.9928C30.7807 30.9928 31.5112 30.264 31.5142 29.364L31.3142 29.3633ZM38.0972 22.9847C36.2031 22.9847 34.5905 23.6002 33.4088 24.7083C32.2273 25.8163 31.4836 27.4103 31.3145 29.355L31.5138 29.3723C31.6792 27.4692 32.4051 25.9237 33.5456 24.8542C34.6859 23.7849 36.2476 23.1847 38.0972 23.1847V22.9847ZM44.6512 29.1205C44.6512 25.5613 41.9389 22.9847 38.0972 22.9847V23.1847C41.8401 23.1847 44.4512 25.6831 44.4512 29.1205H44.6512ZM40.5325 35.6331C42.0213 34.6197 43.0527 33.6806 43.711 32.6479C44.3709 31.6126 44.6512 30.4906 44.6512 29.1205H44.4512C44.4512 30.4603 44.1779 31.5432 43.5423 32.5404C42.9051 33.5401 41.899 34.461 40.42 35.4677L40.5325 35.6331ZM35.9125 43.1128C35.9008 41.4899 36.233 40.1729 36.9748 38.9878C37.718 37.8006 38.877 36.7383 40.5318 35.6336L40.4207 35.4672C38.7543 36.5797 37.5696 37.6607 36.8053 38.8817C36.0397 40.1047 35.7006 41.4606 35.7125 43.1143L35.9125 43.1128ZM35.9125 45.4293V43.1136H35.7125V45.4293H35.9125ZM35.8218 45.3293H35.8125V45.5293H35.8218V45.3293ZM37.3839 46.8882C36.5774 46.8882 35.9235 46.2352 35.9218 45.4291L35.7218 45.4295C35.7237 46.3459 36.4671 47.0882 37.3839 47.0882V46.8882ZM38.8461 45.426C38.8461 46.2336 38.1915 46.8882 37.3839 46.8882V47.0882C38.3019 47.0882 39.0461 46.344 39.0461 45.426H38.8461ZM38.8453 45.3767C38.8458 45.3931 38.8461 45.4095 38.8461 45.426H39.0461C39.0461 45.4073 39.0458 45.3887 39.0451 45.3701L38.8453 45.3767ZM38.8452 43.5816V45.3734H39.0452V43.5816H38.8452ZM42.8466 37.2904C41.3006 38.3272 40.2972 39.205 39.6822 40.1745C39.0651 41.1475 38.8452 42.2029 38.8452 43.5816H39.0452C39.0452 42.2258 39.2611 41.2118 39.8511 40.2817C40.4433 39.3481 41.4184 38.489 42.958 37.4565L42.8466 37.2904ZM47.7723 28.9727C47.7723 32.5771 46.0537 35.1358 42.8466 37.2904L42.9581 37.4564C46.2049 35.2752 47.9723 32.6605 47.9723 28.9727H47.7723ZM38.215 20.2531C43.8439 20.2531 47.7723 24.0094 47.7723 28.9727H47.9723C47.9723 23.8845 43.9394 20.0531 38.215 20.0531V20.2531ZM28.4671 29.1079C28.6619 26.5999 29.6291 24.3873 31.2787 22.802C32.9278 21.2174 35.2657 20.2531 38.215 20.2531V20.0531C35.2201 20.0531 32.8306 21.0334 31.1402 22.6578C29.4503 24.2817 28.4658 26.5426 28.2677 29.0924L28.4671 29.1079ZM28.4457 29.3585C28.4457 29.2761 28.4526 29.1954 28.466 29.1169L28.2688 29.0835C28.2536 29.1729 28.2457 29.2648 28.2457 29.3585H28.4457ZM28.4468 29.4144C28.4461 29.3959 28.4457 29.3772 28.4457 29.3585H28.2457C28.2457 29.3798 28.2461 29.4009 28.2469 29.422L28.4468 29.4144ZM28.4456 29.4458L28.4467 29.4232L28.247 29.4132L28.2458 29.4357L28.4456 29.4458Z" fill="#A0A0A0"/>
<path d="M37.6734 56.1277C39.2515 56.1277 40.4057 54.9575 40.4057 53.3894C40.4057 51.7979 39.2515 50.6277 37.6734 50.6277C36.0716 50.6277 34.9175 51.7979 34.9175 53.3894C34.9175 54.9575 36.0716 56.1277 37.6734 56.1277Z" fill="#A0A0A0" stroke="#A0A0A0" stroke-width="0.2"/>
</svg>
