<svg width="76" height="75" viewBox="0 0 76 75" fill="none" xmlns="http://www.w3.org/2000/svg">
<path fill-rule="evenodd" clip-rule="evenodd" d="M14.9304 15.4717C18.4513 11.6031 23.7529 9.375 30.8125 9.375C37.9401 9.375 43.2294 11.9614 46.7173 15.966C50.1748 19.9356 51.75 25.1673 51.75 30.3125C51.75 35.7823 49.8149 41.3146 45.8704 45.3482L64.7299 64.2076C65.34 64.8178 65.34 65.8072 64.7299 66.4174C64.1197 67.0275 63.1303 67.0275 62.5201 66.4174L42.5201 46.4174C42.2124 46.1096 42.0469 45.6874 42.0636 45.2525C42.0804 44.8176 42.2777 44.4094 42.6081 44.1262C46.5865 40.7161 48.625 35.552 48.625 30.3125C48.625 25.7702 47.2315 21.3144 44.3608 18.0184C41.5206 14.7574 37.1224 12.5 30.8125 12.5C24.4346 12.5 20.0487 14.4906 17.2415 17.5751C14.4111 20.685 13 25.1108 13 30.3125C13 35.495 14.479 39.9243 17.3522 43.0428C20.2057 46.1398 24.6002 48.125 30.8125 48.125C32.0645 48.125 32.8275 48.12 33.871 47.8592C34.5184 47.6973 35.0943 47.6094 35.5622 47.538C35.6065 47.5313 35.6498 47.5247 35.6921 47.5182C36.2026 47.4396 36.5518 47.3774 36.8809 47.2677C37.6996 46.9948 38.5844 47.4372 38.8573 48.2559C39.1302 49.0746 38.6878 49.9594 37.8691 50.2323C37.2607 50.4351 36.6724 50.5291 36.1673 50.6068C36.1268 50.6131 36.0867 50.6192 36.0468 50.6253C35.5682 50.6986 35.1286 50.7659 34.629 50.8908C33.1919 51.2501 32.0902 51.2501 30.8622 51.25H30.8125C23.8998 51.25 18.6068 49.0164 15.054 45.1603C11.521 41.3257 9.875 36.0675 9.875 30.3125C9.875 24.5767 11.4326 19.315 14.9304 15.4717Z" fill="#A0A0A0"/>
</svg>
